<?xml version="1.0" encoding="utf-8"?>
<!-- Generator: Fusion 360, Shaper Origin Export Add-In, Version 1.6.2  -->
<svg xmlns="http://www.w3.org/2000/svg" xmlns:xlink="http://www.w3.org/1999/xlink" xmlns:shaper="http://www.shapertools.com/namespaces/shaper" shaper:fusionaddin="version:1.6.2" width="14.7391773cm" height="16.5570187cm" version="1.1" x="0cm" y="0cm" viewBox="0 0 14.7391773 16.5570187" enable-background="new 0 0 14.7391773 16.5570187" xml:space="preserve"><path d="M12.8716454,15.9451402 A0.45,0.45 0 0,1 12.4216454,16.3951402 L10.7059672,16.3951402 A0.35,0.35 32.5129359 0,1 10.1156782,16.3951402 L-0,16.3951402 A0.45,0.45 90 0,1 -0.45,15.9451402 L-0.45,8.4975701 -0.5283546,8.4975701 -0.5283546,3.7975701 -0.4535543,3.7975701 -0.45,0.45 A0.45,0.45 180 0,1 -0,0 L12.4216454,0 A0.45,0.45 270 0,1 12.8716454,0.45 L12.8716454,12.4475701 13.5462476,12.4475701 A0.4,0.4 228.5903779 0,1 14.1108227,13.0121452 L14.1108227,15.8838753 12.8716454,15.8748776 12.8716454,15.9451402z" transform="matrix(1,0,0,-1,0.5283546,16.5570187)" fill="rgb(0,0,0)" shaper:cutDepth="0" stroke-linecap="round" stroke-linejoin="round" /><path d="M9.7341454,8.3 L10.2341454,8.3 10.2341454,8 9.7341454,8 9.7341454,8.3z" transform="matrix(1,0,0,-1,0.5283546,16.5570187)" fill="rgb(255,255,255)" stroke="rgb(0,0,0)" stroke-width="0.0010cm" stroke-linecap="round" stroke-linejoin="round" shaper:cutDepth="0" /><path d="M10.9408227,12.7475701 a0.17,0.17 0 1,1 0.34,0 a0.17,0.17 0 1,1 -0.34,0z" transform="matrix(1,0,0,-1,0.5283546,16.5570187)" fill="rgb(255,255,255)" stroke="rgb(0,0,0)" stroke-width="0.0010cm" stroke-linecap="round" stroke-linejoin="round" shaper:cutDepth="0" /><path d="M6.2408227,13.6175701 a0.17,0.17 0 1,1 0.34,0 a0.17,0.17 0 1,1 -0.34,0z" transform="matrix(1,0,0,-1,0.5283546,16.5570187)" fill="rgb(255,255,255)" stroke="rgb(0,0,0)" stroke-width="0.0010cm" stroke-linecap="round" stroke-linejoin="round" shaper:cutDepth="0" /><path d="M1.8371916,13.3175701 L5.7744538,13.3175701 3.8058227,11.4810846 1.8371916,13.3175701z" transform="matrix(1,0,0,-1,0.5283546,16.5570187)" fill="rgb(255,255,255)" stroke="rgb(0,0,0)" stroke-width="0.0010cm" stroke-linecap="round" stroke-linejoin="round" shaper:cutDepth="0" /><path d="M6.1108227,13.084331 L6.1108227,9.3308092 4.0990181,11.2075701 6.1108227,13.084331z" transform="matrix(1,0,0,-1,0.5283546,16.5570187)" fill="rgb(255,255,255)" stroke="rgb(0,0,0)" stroke-width="0.0010cm" stroke-linecap="round" stroke-linejoin="round" shaper:cutDepth="0" /><path d="M13.6408227,12.7475701 a0.17,0.17 0 1,1 0.34,0 a0.17,0.17 0 1,1 -0.34,0z" transform="matrix(1,0,0,-1,0.5283546,16.5570187)" fill="rgb(255,255,255)" stroke="rgb(0,0,0)" stroke-width="0.0010cm" stroke-linecap="round" stroke-linejoin="round" shaper:cutDepth="0" /><path d="M1.5008227,9.3308092 L1.5008227,13.084331 3.5126273,11.2075701 1.5008227,9.3308092z" transform="matrix(1,0,0,-1,0.5283546,16.5570187)" fill="rgb(255,255,255)" stroke="rgb(0,0,0)" stroke-width="0.0010cm" stroke-linecap="round" stroke-linejoin="round" shaper:cutDepth="0" /><path d="M5.7744538,9.0975701 L1.8371916,9.0975701 3.8058227,10.9340556 5.7744538,9.0975701z" transform="matrix(1,0,0,-1,0.5283546,16.5570187)" fill="rgb(255,255,255)" stroke="rgb(0,0,0)" stroke-width="0.0010cm" stroke-linecap="round" stroke-linejoin="round" shaper:cutDepth="0" /><path d="M7.37083,9.9617533 L9.1979296,12.2373228 A0.2,0.2 141.2383327 0,0 9.5098324,11.9868899 L7.6827328,9.7113204 A0.2,0.2 321.2383327 0,0 7.37083,9.9617533z" transform="matrix(1,0,0,-1,0.5283546,16.5570187)" fill="rgb(255,255,255)" stroke="rgb(0,0,0)" stroke-width="0.0010cm" stroke-linecap="round" stroke-linejoin="round" shaper:cutDepth="0" /><path d="M8.4466454,8.3 L8.4466454,8 7.9466454,8 7.9466454,8.3 8.4466454,8.3z" transform="matrix(1,0,0,-1,0.5283546,16.5570187)" fill="rgb(255,255,255)" stroke="rgb(0,0,0)" stroke-width="0.0010cm" stroke-linecap="round" stroke-linejoin="round" shaper:cutDepth="0" /><path d="M6.1591454,8.3 L6.6591454,8.3 6.6591454,8 6.1591454,8 6.1591454,8.3z" transform="matrix(1,0,0,-1,0.5283546,16.5570187)" fill="rgb(255,255,255)" stroke="rgb(0,0,0)" stroke-width="0.0010cm" stroke-linecap="round" stroke-linejoin="round" shaper:cutDepth="0" /><path d="M12.6275968,0.5252165 A0.2,0.2 38.7616673 1,0 12.315694,0.2747835 L7.3684574,6.4363418 A0.2,0.2 218.7616673 0,0 7.6803603,6.6867747 L12.6275968,0.5252165z" transform="matrix(1,0,0,-1,0.5283546,16.5570187)" fill="rgb(255,255,255)" stroke="rgb(0,0,0)" stroke-width="0.0010cm" stroke-linecap="round" stroke-linejoin="round" shaper:cutDepth="0" /><path d="M-0.2059514,0.5252165 L2.3452697,3.7026463 A0.2,0.2 141.2383327 1,0 2.6571725,3.4522134 L0.1059514,0.2747835 A0.2,0.2 321.2383327 1,0 -0.2059514,0.5252165z" transform="matrix(1,0,0,-1,0.5283546,16.5570187)" fill="rgb(255,255,255)" stroke="rgb(0,0,0)" stroke-width="0.0010cm" stroke-linecap="round" stroke-linejoin="round" shaper:cutDepth="0" /><path d="M4.3716454,8 L4.3716454,8.3 4.8716454,8.3 4.8716454,8 4.3716454,8z" transform="matrix(1,0,0,-1,0.5283546,16.5570187)" fill="rgb(255,255,255)" stroke="rgb(0,0,0)" stroke-width="0.0010cm" stroke-linecap="round" stroke-linejoin="round" shaper:cutDepth="0" /><path d="M7.65,15.607912 L7.65,14.8823683 A0.35,0.35 124.8499046 0,1 7.5000235,14.5991923 L6.4965402,13.9175701 2.2593474,13.9175701 0.8429548,15.6816226 7.572673,15.6816226 A0.35,0.35 217.5931226 0,1 7.65,15.607912z" transform="matrix(1,0,0,-1,0.5283546,16.5570187)" fill="rgb(255,255,255)" stroke="rgb(0,0,0)" stroke-width="0.0010cm" stroke-linecap="round" stroke-linejoin="round" shaper:cutDepth="0" /><path d="M4.3716454,1 L4.8716454,1 4.8716454,0.7 4.3716454,0.7 4.3716454,1z" transform="matrix(1,0,0,-1,0.5283546,16.5570187)" fill="rgb(255,255,255)" stroke="rgb(0,0,0)" stroke-width="0.0010cm" stroke-linecap="round" stroke-linejoin="round" shaper:cutDepth="0" /><path d="M10.2644569,12.4475701 L10.8462476,12.4475701 A0.4,0.4 228.5903779 0,1 11.3753978,12.4475701 L12.0716454,12.4475701 12.0716454,8.4975701 7.092924,8.4975701 10.2644569,12.4475701z" transform="matrix(1,0,0,-1,0.5283546,16.5570187)" fill="rgb(255,255,255)" stroke="rgb(0,0,0)" stroke-width="0.0010cm" stroke-linecap="round" stroke-linejoin="round" shaper:cutDepth="0" /><path d="M6.6591454,1 L6.6591454,0.7 6.1591454,0.7 6.1591454,1 6.6591454,1z" transform="matrix(1,0,0,-1,0.5283546,16.5570187)" fill="rgb(255,255,255)" stroke="rgb(0,0,0)" stroke-width="0.0010cm" stroke-linecap="round" stroke-linejoin="round" shaper:cutDepth="0" /><path d="M0.35,15.1780072 A0.2,0.2 221.9538527 1,0 0.6546881,15.43693 L1.9068526,13.877416 A0.2,0.2 38.7616673 0,0 1.5949498,13.6269831 L0.35,15.1775115 0.35,15.1780072z" transform="matrix(1,0,0,-1,0.5283546,16.5570187)" fill="rgb(255,255,255)" stroke="rgb(0,0,0)" stroke-width="0.0010cm" stroke-linecap="round" stroke-linejoin="round" shaper:cutDepth="0" /><path d="M10.2341454,1 L10.2341454,0.7 9.7341454,0.7 9.7341454,1 10.2341454,1z" transform="matrix(1,0,0,-1,0.5283546,16.5570187)" fill="rgb(255,255,255)" stroke="rgb(0,0,0)" stroke-width="0.0010cm" stroke-linecap="round" stroke-linejoin="round" shaper:cutDepth="0" /><path d="M8.4466454,1 L8.4466454,0.7 7.9466454,0.7 7.9466454,1 8.4466454,1z" transform="matrix(1,0,0,-1,0.5283546,16.5570187)" fill="rgb(255,255,255)" stroke="rgb(0,0,0)" stroke-width="0.0010cm" stroke-linecap="round" stroke-linejoin="round" shaper:cutDepth="0" /><path d="M10.2408227,16.2070187 a0.17,0.17 0 1,1 0.34,0 a0.17,0.17 0 1,1 -0.34,0z" transform="matrix(1,0,0,-1,0.5283546,16.5570187)" fill="rgb(255,255,255)" stroke="rgb(0,0,0)" stroke-width="0.0010cm" stroke-linecap="round" stroke-linejoin="round" shaper:cutDepth="0" /><path d="M-0.22,15.8951402 a0.17,0.17 0 1,1 0.34,0 a0.17,0.17 0 1,1 -0.34,0z" transform="matrix(1,0,0,-1,0.5283546,16.5570187)" fill="rgb(255,255,255)" stroke="rgb(0,0,0)" stroke-width="0.0010cm" stroke-linecap="round" stroke-linejoin="round" shaper:cutDepth="0" /><path d="M-0.22,14.5951402 a0.17,0.17 0 1,1 0.34,0 a0.17,0.17 0 1,1 -0.34,0z" transform="matrix(1,0,0,-1,0.5283546,16.5570187)" fill="rgb(255,255,255)" stroke="rgb(0,0,0)" stroke-width="0.0010cm" stroke-linecap="round" stroke-linejoin="round" shaper:cutDepth="0" /><path d="M7.68,15.8951402 a0.17,0.17 0 1,1 0.34,0 a0.17,0.17 0 1,1 -0.34,0z" transform="matrix(1,0,0,-1,0.5283546,16.5570187)" fill="rgb(255,255,255)" stroke="rgb(0,0,0)" stroke-width="0.0010cm" stroke-linecap="round" stroke-linejoin="round" shaper:cutDepth="0" /><path d="M12.0216454,8 L11.5216454,8 11.5216454,8.3 12.0216454,8.3 12.0216454,8z" transform="matrix(1,0,0,-1,0.5283546,16.5570187)" fill="rgb(255,255,255)" stroke="rgb(0,0,0)" stroke-width="0.0010cm" stroke-linecap="round" stroke-linejoin="round" shaper:cutDepth="0" /><path d="M7.68,14.5951402 a0.17,0.17 0 1,1 0.34,0 a0.17,0.17 0 1,1 -0.34,0z" transform="matrix(1,0,0,-1,0.5283546,16.5570187)" fill="rgb(255,255,255)" stroke="rgb(0,0,0)" stroke-width="0.0010cm" stroke-linecap="round" stroke-linejoin="round" shaper:cutDepth="0" /><path d="M0.0716454,4.3975701 L0.0716454,7.8975701 3.2716454,7.8975701 3.2716454,4.3975701 0.0716454,4.3975701z" transform="matrix(1,0,0,-1,0.5283546,16.5570187)" fill="rgb(255,255,255)" stroke="rgb(0,0,0)" stroke-width="0.0010cm" stroke-linecap="round" stroke-linejoin="round" shaper:cutDepth="0" /><path d="M3.4389814,7.9163072 a0.17,0.17 0 1,1 0.34,0 a0.17,0.17 0 1,1 -0.34,0z" transform="matrix(1,0,0,-1,0.5283546,16.5570187)" fill="rgb(255,255,255)" stroke="rgb(0,0,0)" stroke-width="0.0010cm" stroke-linecap="round" stroke-linejoin="round" shaper:cutDepth="0" /><path d="M3.4389814,4.1363072 a0.17,0.17 0 1,1 0.34,0 a0.17,0.17 0 1,1 -0.34,0z" transform="matrix(1,0,0,-1,0.5283546,16.5570187)" fill="rgb(255,255,255)" stroke="rgb(0,0,0)" stroke-width="0.0010cm" stroke-linecap="round" stroke-linejoin="round" shaper:cutDepth="0" /><path d="M10.5741739,13.3124788 A0.2,0.2 321.2390556 1,0 10.2622695,13.5629098 L12.315694,16.1203566 A0.2,0.2 141.2383327 1,0 12.6250191,15.8667794 L10.5741739,13.3124788z" transform="matrix(1,0,0,-1,0.5283546,16.5570187)" fill="rgb(255,255,255)" stroke="rgb(0,0,0)" stroke-width="0.0010cm" stroke-linecap="round" stroke-linejoin="round" shaper:cutDepth="0" /><path d="M8.7108227,15.6816226 L8.7108227,15.6933062 9.1108227,15.6816226 8.7108227,15.6816226z" transform="matrix(1,0,0,-1,0.5283546,16.5570187)" fill="rgb(255,255,255)" stroke="rgb(0,0,0)" stroke-width="0.0010cm" stroke-linecap="round" stroke-linejoin="round" shaper:cutDepth="0" /><path d="M6.1108227,8.7975701 a0.17,0.17 0 1,1 0.34,0 a0.17,0.17 0 1,1 -0.34,0z" transform="matrix(1,0,0,-1,0.5283546,16.5570187)" fill="rgb(255,255,255)" stroke="rgb(0,0,0)" stroke-width="0.0010cm" stroke-linecap="round" stroke-linejoin="round" shaper:cutDepth="0" /><path d="M-0.4110186,7.9163072 a0.17,0.17 0 1,1 0.34,0 a0.17,0.17 0 1,1 -0.34,0z" transform="matrix(1,0,0,-1,0.5283546,16.5570187)" fill="rgb(255,255,255)" stroke="rgb(0,0,0)" stroke-width="0.0010cm" stroke-linecap="round" stroke-linejoin="round" shaper:cutDepth="0" /><path d="M-0.4110186,4.1363072 a0.17,0.17 0 1,1 0.34,0 a0.17,0.17 0 1,1 -0.34,0z" transform="matrix(1,0,0,-1,0.5283546,16.5570187)" fill="rgb(255,255,255)" stroke="rgb(0,0,0)" stroke-width="0.0010cm" stroke-linecap="round" stroke-linejoin="round" shaper:cutDepth="0" /><path d="M1.0308227,12.7575701 a0.17,0.17 0 1,1 0.34,0 a0.17,0.17 0 1,1 -0.34,0z" transform="matrix(1,0,0,-1,0.5283546,16.5570187)" fill="rgb(255,255,255)" stroke="rgb(0,0,0)" stroke-width="0.0010cm" stroke-linecap="round" stroke-linejoin="round" shaper:cutDepth="0" /><path d="M1.0308227,9.9675701 a0.17,0.17 0 1,1 0.34,0 a0.17,0.17 0 1,1 -0.34,0z" transform="matrix(1,0,0,-1,0.5283546,16.5570187)" fill="rgb(255,255,255)" stroke="rgb(0,0,0)" stroke-width="0.0010cm" stroke-linecap="round" stroke-linejoin="round" shaper:cutDepth="0" /></svg>