<?xml version="1.0" encoding="utf-8"?>
<!-- Generator: Fusion 360, Shaper Origin Export Add-In, Version 1.6.2  -->
<svg xmlns="http://www.w3.org/2000/svg" xmlns:xlink="http://www.w3.org/1999/xlink" xmlns:shaper="http://www.shapertools.com/namespaces/shaper" shaper:fusionaddin="version:1.6.2" width="14.7391773cm" height="16.5568151cm" version="1.1" x="0cm" y="0cm" viewBox="0 0 14.7391773 16.5568151" enable-background="new 0 0 14.7391773 16.5568151" xml:space="preserve"><path d="M12.8716454,15.9451402 A0.45,0.45 0 0,1 12.4216454,16.3951402 L10.7058374,16.3951402 A0.35,0.35 32.5524712 0,1 10.115808,16.3951402 L-0,16.3951402 A0.45,0.45 90 0,1 -0.45,15.9451402 L-0.45,8.4975701 -0.5283546,8.4975701 -0.5283546,3.7975701 -0.4494084,3.7975701 -0.45,0.45 A0.45,0.45 180 0,1 0,-0 L12.4216454,0 A0.45,0.45 270 0,1 12.8716454,0.45 L12.8716454,12.4475701 13.5462476,12.4475701 A0.4,0.4 228.5903779 0,1 14.1108227,13.0121452 L14.1108227,15.8830937 12.8716454,15.8742897 12.8716454,15.9451402z" transform="matrix(1,0,0,-1,0.5283546,16.5568151)" fill="rgb(0,0,0)" shaper:cutDepth="0" stroke-linecap="round" stroke-linejoin="round" /><path d="M10.2341454,1 L10.2341454,0.7 9.7341454,0.7 9.7341454,1 10.2341454,1z" transform="matrix(1,0,0,-1,0.5283546,16.5568151)" fill="rgb(255,255,255)" stroke="rgb(0,0,0)" stroke-width="0.0010cm" stroke-linecap="round" stroke-linejoin="round" shaper:cutDepth="0" /><path d="M12.0716454,8.4975701 L7.6108227,8.4975701 7.6108227,9.1425894 10.2644569,12.4475701 12.0716454,12.4475701 12.0716454,8.4975701z" transform="matrix(1,0,0,-1,0.5283546,16.5568151)" fill="rgb(255,255,255)" stroke="rgb(0,0,0)" stroke-width="0.0010cm" stroke-linecap="round" stroke-linejoin="round" shaper:cutDepth="0" /><path d="M3.3192014,3.7975701 L3.8716454,3.7975701 3.8716454,0.8 0.9123933,0.8 3.3192014,3.7975701z" transform="matrix(1,0,0,-1,0.5283546,16.5568151)" fill="rgb(255,255,255)" stroke="rgb(0,0,0)" stroke-width="0.0010cm" stroke-linecap="round" stroke-linejoin="round" shaper:cutDepth="0" /><path d="M2.0367506,3.7975701 L0.35,1.6967989 0.35,3.7975701 2.0367506,3.7975701z" transform="matrix(1,0,0,-1,0.5283546,16.5568151)" fill="rgb(255,255,255)" stroke="rgb(0,0,0)" stroke-width="0.0010cm" stroke-linecap="round" stroke-linejoin="round" shaper:cutDepth="0" /><path d="M10.581849,13.3220378 A0.2,0.2 321.2388306 1,0 10.2699451,13.5724694 L12.315694,16.1203566 A0.2,0.2 141.2383327 1,0 12.6254659,15.8673151 L10.581849,13.3220378z" transform="matrix(1,0,0,-1,0.5283546,16.5568151)" fill="rgb(255,255,255)" stroke="rgb(0,0,0)" stroke-width="0.0010cm" stroke-linecap="round" stroke-linejoin="round" shaper:cutDepth="0" /><path d="M12.6275968,0.5252165 A0.2,0.2 38.7616673 1,0 12.315694,0.2747835 L7.3684574,6.4363418 A0.2,0.2 218.7616673 0,0 7.6803603,6.6867747 L12.6275968,0.5252165z" transform="matrix(1,0,0,-1,0.5283546,16.5568151)" fill="rgb(255,255,255)" stroke="rgb(0,0,0)" stroke-width="0.0010cm" stroke-linecap="round" stroke-linejoin="round" shaper:cutDepth="0" /><path d="M8.4466454,1 L8.4466454,0.7 7.9466454,0.7 7.9466454,1 8.4466454,1z" transform="matrix(1,0,0,-1,0.5283546,16.5568151)" fill="rgb(255,255,255)" stroke="rgb(0,0,0)" stroke-width="0.0010cm" stroke-linecap="round" stroke-linejoin="round" shaper:cutDepth="0" /><path d="M6.6591454,1 L6.6591454,0.7 6.1591454,0.7 6.1591454,1 6.6591454,1z" transform="matrix(1,0,0,-1,0.5283546,16.5568151)" fill="rgb(255,255,255)" stroke="rgb(0,0,0)" stroke-width="0.0010cm" stroke-linecap="round" stroke-linejoin="round" shaper:cutDepth="0" /><path d="M0.6157445,14.3673686 L1.8008227,12.8914075 1.8008227,8.4975701 0.35,8.4975701 0.35,14.2451402 A0.35,0.35 270 0,1 0.6157445,14.3673686z" transform="matrix(1,0,0,-1,0.5283546,16.5568151)" fill="rgb(255,255,255)" stroke="rgb(0,0,0)" stroke-width="0.0010cm" stroke-linecap="round" stroke-linejoin="round" shaper:cutDepth="0" /><path d="M4.3716454,1 L4.8716454,1 4.8716454,0.7 4.3716454,0.7 4.3716454,1z" transform="matrix(1,0,0,-1,0.5283546,16.5568151)" fill="rgb(255,255,255)" stroke="rgb(0,0,0)" stroke-width="0.0010cm" stroke-linecap="round" stroke-linejoin="round" shaper:cutDepth="0" /><path d="M-0.2059514,0.5252165 L2.3529485,3.71221 A0.2,0.2 141.2383327 0,0 2.6648513,3.4617771 L0.1059514,0.2747835 A0.2,0.2 321.2383327 1,0 -0.2059514,0.5252165z" transform="matrix(1,0,0,-1,0.5283546,16.5568151)" fill="rgb(255,255,255)" stroke="rgb(0,0,0)" stroke-width="0.0010cm" stroke-linecap="round" stroke-linejoin="round" shaper:cutDepth="0" /><path d="M0.35,15.1898041 A0.2,0.2 234.708084 1,0 0.6214999,15.4782644 L2.1638096,13.5573877 A0.2,0.2 38.7616673 0,0 1.8519068,13.3069548 L0.35,15.1775115 0.35,15.1898041z" transform="matrix(1,0,0,-1,0.5283546,16.5568151)" fill="rgb(255,255,255)" stroke="rgb(0,0,0)" stroke-width="0.0010cm" stroke-linecap="round" stroke-linejoin="round" shaper:cutDepth="0" /><path d="M8.05,15.607912 L8.05,14.8823683 A0.35,0.35 124.8499046 0,1 7.906782,14.5265735 L7.3216964,13.9175701 2.2593474,13.9175701 0.8471214,15.6764334 7.9767467,15.6764334 A0.35,0.35 218.6731263 0,1 8.05,15.607912z" transform="matrix(1,0,0,-1,0.5283546,16.5568151)" fill="rgb(255,255,255)" stroke="rgb(0,0,0)" stroke-width="0.0010cm" stroke-linecap="round" stroke-linejoin="round" shaper:cutDepth="0" /><path d="M6.1591454,8.3 L6.6591454,8.3 6.6591454,8 6.1591454,8 6.1591454,8.3z" transform="matrix(1,0,0,-1,0.5283546,16.5568151)" fill="rgb(255,255,255)" stroke="rgb(0,0,0)" stroke-width="0.0010cm" stroke-linecap="round" stroke-linejoin="round" shaper:cutDepth="0" /><path d="M8.1952322,14.2494517 A0.35,0.35 260.9973954 0,1 8.45,14.8823683 L8.45,15.607912 A0.35,0.35 304.8499046 0,1 8.5232533,15.6764334 L9.1108227,15.6764334 9.1108227,12.6158002 7.6108227,10.7524934 7.6108227,13.641152 8.1952322,14.2494517z" transform="matrix(1,0,0,-1,0.5283546,16.5568151)" fill="rgb(255,255,255)" stroke="rgb(0,0,0)" stroke-width="0.0010cm" stroke-linecap="round" stroke-linejoin="round" shaper:cutDepth="0" /><path d="M4.3716454,8 L4.3716454,8.3 4.8716454,8.3 4.8716454,8 4.3716454,8z" transform="matrix(1,0,0,-1,0.5283546,16.5568151)" fill="rgb(255,255,255)" stroke="rgb(0,0,0)" stroke-width="0.0010cm" stroke-linecap="round" stroke-linejoin="round" shaper:cutDepth="0" /><path d="M8.4466454,8.3 L8.4466454,8 7.9466454,8 7.9466454,8.3 8.4466454,8.3z" transform="matrix(1,0,0,-1,0.5283546,16.5568151)" fill="rgb(255,255,255)" stroke="rgb(0,0,0)" stroke-width="0.0010cm" stroke-linecap="round" stroke-linejoin="round" shaper:cutDepth="0" /><path d="M7.37083,9.9617533 L9.1008006,12.1163531 A0.2,0.2 141.2383327 0,0 9.4127034,11.8659202 L7.6827328,9.7113204 A0.2,0.2 321.2383327 1,0 7.37083,9.9617533z" transform="matrix(1,0,0,-1,0.5283546,16.5568151)" fill="rgb(255,255,255)" stroke="rgb(0,0,0)" stroke-width="0.0010cm" stroke-linecap="round" stroke-linejoin="round" shaper:cutDepth="0" /><path d="M11.5716454,7.5 L11.5716454,2.3195262 7.4121409,7.5 11.5716454,7.5z" transform="matrix(1,0,0,-1,0.5283546,16.5568151)" fill="rgb(255,255,255)" stroke="rgb(0,0,0)" stroke-width="0.0010cm" stroke-linecap="round" stroke-linejoin="round" shaper:cutDepth="0" /><path d="M4.3716454,1.3 L4.3716454,5.1083413 6.2108227,7.398953 11.1077923,1.3 4.3716454,1.3z" transform="matrix(1,0,0,-1,0.5283546,16.5568151)" fill="rgb(255,255,255)" stroke="rgb(0,0,0)" stroke-width="0.0010cm" stroke-linecap="round" stroke-linejoin="round" shaper:cutDepth="0" /><path d="M4.3716454,6.7055754 L4.3716454,7.5 5.0095045,7.5 4.3716454,6.7055754z" transform="matrix(1,0,0,-1,0.5283546,16.5568151)" fill="rgb(255,255,255)" stroke="rgb(0,0,0)" stroke-width="0.0010cm" stroke-linecap="round" stroke-linejoin="round" shaper:cutDepth="0" /><path d="M0.18,14.5951402 a0.17,0.17 0 1,1 0.34,0 a0.17,0.17 0 1,1 -0.34,0z" transform="matrix(1,0,0,-1,0.5283546,16.5568151)" fill="rgb(255,255,255)" stroke="rgb(0,0,0)" stroke-width="0.0010cm" stroke-linecap="round" stroke-linejoin="round" shaper:cutDepth="0" /><path d="M6.6744538,9.0975701 L2.7371916,9.0975701 4.7058227,10.9340556 6.6744538,9.0975701z" transform="matrix(1,0,0,-1,0.5283546,16.5568151)" fill="rgb(255,255,255)" stroke="rgb(0,0,0)" stroke-width="0.0010cm" stroke-linecap="round" stroke-linejoin="round" shaper:cutDepth="0" /><path d="M2.4008227,9.3308092 L2.4008227,13.084331 4.4126273,11.2075701 2.4008227,9.3308092z" transform="matrix(1,0,0,-1,0.5283546,16.5568151)" fill="rgb(255,255,255)" stroke="rgb(0,0,0)" stroke-width="0.0010cm" stroke-linecap="round" stroke-linejoin="round" shaper:cutDepth="0" /><path d="M2.7371916,13.3175701 L6.6744538,13.3175701 4.7058227,11.4810846 2.7371916,13.3175701z" transform="matrix(1,0,0,-1,0.5283546,16.5568151)" fill="rgb(255,255,255)" stroke="rgb(0,0,0)" stroke-width="0.0010cm" stroke-linecap="round" stroke-linejoin="round" shaper:cutDepth="0" /><path d="M7.0108227,13.084331 L7.0108227,9.3308092 4.9990181,11.2075701 7.0108227,13.084331z" transform="matrix(1,0,0,-1,0.5283546,16.5568151)" fill="rgb(255,255,255)" stroke="rgb(0,0,0)" stroke-width="0.0010cm" stroke-linecap="round" stroke-linejoin="round" shaper:cutDepth="0" /><path d="M12.0216454,8 L11.5216454,8 11.5216454,8.3 12.0216454,8.3 12.0216454,8z" transform="matrix(1,0,0,-1,0.5283546,16.5568151)" fill="rgb(255,255,255)" stroke="rgb(0,0,0)" stroke-width="0.0010cm" stroke-linecap="round" stroke-linejoin="round" shaper:cutDepth="0" /><path d="M7.1408227,13.6175701 a0.17,0.17 0 1,1 0.34,0 a0.17,0.17 0 1,1 -0.34,0z" transform="matrix(1,0,0,-1,0.5283546,16.5568151)" fill="rgb(255,255,255)" stroke="rgb(0,0,0)" stroke-width="0.0010cm" stroke-linecap="round" stroke-linejoin="round" shaper:cutDepth="0" /><path d="M9.7341454,8.3 L10.2341454,8.3 10.2341454,8 9.7341454,8 9.7341454,8.3z" transform="matrix(1,0,0,-1,0.5283546,16.5568151)" fill="rgb(255,255,255)" stroke="rgb(0,0,0)" stroke-width="0.0010cm" stroke-linecap="round" stroke-linejoin="round" shaper:cutDepth="0" /><path d="M13.6408227,12.7475701 a0.17,0.17 0 1,1 0.34,0 a0.17,0.17 0 1,1 -0.34,0z" transform="matrix(1,0,0,-1,0.5283546,16.5568151)" fill="rgb(255,255,255)" stroke="rgb(0,0,0)" stroke-width="0.0010cm" stroke-linecap="round" stroke-linejoin="round" shaper:cutDepth="0" /><path d="M9.7408227,12.7475701 a0.17,0.17 0 1,1 0.34,0 a0.17,0.17 0 1,1 -0.34,0z" transform="matrix(1,0,0,-1,0.5283546,16.5568151)" fill="rgb(255,255,255)" stroke="rgb(0,0,0)" stroke-width="0.0010cm" stroke-linecap="round" stroke-linejoin="round" shaper:cutDepth="0" /><path d="M1.9308227,12.7575701 a0.17,0.17 0 1,1 0.34,0 a0.17,0.17 0 1,1 -0.34,0z" transform="matrix(1,0,0,-1,0.5283546,16.5568151)" fill="rgb(255,255,255)" stroke="rgb(0,0,0)" stroke-width="0.0010cm" stroke-linecap="round" stroke-linejoin="round" shaper:cutDepth="0" /><path d="M1.9308227,9.9675701 a0.17,0.17 0 1,1 0.34,0 a0.17,0.17 0 1,1 -0.34,0z" transform="matrix(1,0,0,-1,0.5283546,16.5568151)" fill="rgb(255,255,255)" stroke="rgb(0,0,0)" stroke-width="0.0010cm" stroke-linecap="round" stroke-linejoin="round" shaper:cutDepth="0" /><path d="M7.0108227,8.7975701 a0.17,0.17 0 1,1 0.34,0 a0.17,0.17 0 1,1 -0.34,0z" transform="matrix(1,0,0,-1,0.5283546,16.5568151)" fill="rgb(255,255,255)" stroke="rgb(0,0,0)" stroke-width="0.0010cm" stroke-linecap="round" stroke-linejoin="round" shaper:cutDepth="0" /><path d="M-0.3866188,4.1324454 a0.17,0.17 0 1,1 0.34,0 a0.17,0.17 0 1,1 -0.34,0z" transform="matrix(1,0,0,-1,0.5283546,16.5568151)" fill="rgb(255,255,255)" stroke="rgb(0,0,0)" stroke-width="0.0010cm" stroke-linecap="round" stroke-linejoin="round" shaper:cutDepth="0" /><path d="M-0.3866188,7.9124454 a0.17,0.17 0 1,1 0.34,0 a0.17,0.17 0 1,1 -0.34,0z" transform="matrix(1,0,0,-1,0.5283546,16.5568151)" fill="rgb(255,255,255)" stroke="rgb(0,0,0)" stroke-width="0.0010cm" stroke-linecap="round" stroke-linejoin="round" shaper:cutDepth="0" /><path d="M3.4633812,7.9124454 a0.17,0.17 0 1,1 0.34,0 a0.17,0.17 0 1,1 -0.34,0z" transform="matrix(1,0,0,-1,0.5283546,16.5568151)" fill="rgb(255,255,255)" stroke="rgb(0,0,0)" stroke-width="0.0010cm" stroke-linecap="round" stroke-linejoin="round" shaper:cutDepth="0" /><path d="M3.4633812,4.1324454 a0.17,0.17 0 1,1 0.34,0 a0.17,0.17 0 1,1 -0.34,0z" transform="matrix(1,0,0,-1,0.5283546,16.5568151)" fill="rgb(255,255,255)" stroke="rgb(0,0,0)" stroke-width="0.0010cm" stroke-linecap="round" stroke-linejoin="round" shaper:cutDepth="0" /><path d="M0.0716454,4.3975701 L0.0716454,7.8975701 3.2716454,7.8975701 3.2716454,4.3975701 0.0716454,4.3975701z" transform="matrix(1,0,0,-1,0.5283546,16.5568151)" fill="rgb(255,255,255)" stroke="rgb(0,0,0)" stroke-width="0.0010cm" stroke-linecap="round" stroke-linejoin="round" shaper:cutDepth="0" /><path d="M8.08,15.8951402 a0.17,0.17 0 1,1 0.34,0 a0.17,0.17 0 1,1 -0.34,0z" transform="matrix(1,0,0,-1,0.5283546,16.5568151)" fill="rgb(255,255,255)" stroke="rgb(0,0,0)" stroke-width="0.0010cm" stroke-linecap="round" stroke-linejoin="round" shaper:cutDepth="0" /><path d="M8.08,14.5951402 a0.17,0.17 0 1,1 0.34,0 a0.17,0.17 0 1,1 -0.34,0z" transform="matrix(1,0,0,-1,0.5283546,16.5568151)" fill="rgb(255,255,255)" stroke="rgb(0,0,0)" stroke-width="0.0010cm" stroke-linecap="round" stroke-linejoin="round" shaper:cutDepth="0" /><path d="M10.2408227,16.2068151 a0.17,0.17 0 1,1 0.34,0 a0.17,0.17 0 1,1 -0.34,0z" transform="matrix(1,0,0,-1,0.5283546,16.5568151)" fill="rgb(255,255,255)" stroke="rgb(0,0,0)" stroke-width="0.0010cm" stroke-linecap="round" stroke-linejoin="round" shaper:cutDepth="0" /><path d="M0.18,15.8951402 a0.17,0.17 0 1,1 0.34,0 a0.17,0.17 0 1,1 -0.34,0z" transform="matrix(1,0,0,-1,0.5283546,16.5568151)" fill="rgb(255,255,255)" stroke="rgb(0,0,0)" stroke-width="0.0010cm" stroke-linecap="round" stroke-linejoin="round" shaper:cutDepth="0" /></svg>